<?xml version="1.0" encoding="utf-8"?>
<!-- Generator: Adobe Illustrator 16.0.0, SVG Export Plug-In . SVG Version: 6.00 Build 0)  -->
<!DOCTYPE svg PUBLIC "-//W3C//DTD SVG 1.1//EN" "http://www.w3.org/Graphics/SVG/1.1/DTD/svg11.dtd">
<svg version="1.1" xmlns="http://www.w3.org/2000/svg" xmlns:xlink="http://www.w3.org/1999/xlink" x="0px" y="0px" width="64px"
	 height="64px" viewBox="0 0 64 64" enable-background="new 0 0 64 64" xml:space="preserve">
<g id="Layer_3" display="none">
	<rect x="-459.668" y="-298.366" display="inline" width="654" height="382"/>
</g>
<g id="Layer_4">
</g>
<g id="Layer_1">
	<g>
		
			<path fill="#F1F0F1" stroke="#A8A8A9" stroke-width="2" stroke-linecap="round" stroke-linejoin="round" stroke-miterlimit="10" d="
			M54.448,46.25L38.143,29.943c2.924-5.435,2.097-12.353-2.49-16.94c-5.604-5.604-14.689-5.604-20.294,0.001
			c-5.604,5.604-5.604,14.689-0.001,20.293c4.589,4.589,11.508,5.414,16.942,2.49l5.87,5.871l-4.782,4.781l4.079,4.077l2.39-2.39
			l2.465,2.465l-1.416,1.417l3.793,3.792l3.808-3.809l0.1,0.101c1.346,1.347,3.55,1.348,4.896,0.001l0.948-0.949
			C55.795,49.799,55.795,47.597,54.448,46.25z"/>
		
			<circle fill="#FFFFFF" stroke="#F3AF1C" stroke-width="2" stroke-linecap="round" stroke-linejoin="round" stroke-miterlimit="10" cx="23.612" cy="20.549" r="4.932"/>
	</g>
	<g id="Layer_2">
	</g>
</g>
</svg>
